<svg id="Layer_1" data-name="Layer 1" xmlns="http://www.w3.org/2000/svg" viewBox="0 0 575.34 150.26">
  <defs>
    <style>
      .cls-1{stroke:#ffffff;stroke-width:2;stroke-linejoin:round;fill:none;filter:url(#glow);}
      .cls-2{stroke:#ffffff;stroke-width:2;stroke-linecap:round;stroke-linejoin:round;fill:none;filter:url(#glow);}
      .cls-3{stroke:#00ffff;stroke-width:2;stroke-linejoin:round;fill:none;filter:url(#glow);}
    </style>
    <filter id="glow">
      <feGaussianBlur stdDeviation="3" result="coloredBlur"/>
      <feMerge>
        <feMergeNode in="coloredBlur"/>
        <feMergeNode in="SourceGraphic"/>
      </feMerge>
    </filter>
  </defs>
  <path class="cls-1" d="M395.91,83.12Q391,75.37,379.8,72.53v-.92q8.19-1.55,13.14-9.22t4.94-19.63q0-17.62-11.29-25.71T350.29,9H313.72V142.49h44q19.94,0,31.55-10.23t11.62-28.5Q400.86,90.89,395.91,83.12ZM335,30.28h21c11.29.06,20.41.84,20.41,16.14s-9.12,16.1-20.41,16.14H335Zm22.85,91H335V83.87H357.8c12.3.07,22.24,6,22.24,18.68C380,117.94,370.1,121.19,357.8,121.24Z"/>
  <path class="cls-2" d="M442.3,43H421V124.2h0v18.11h12.91a8.36,8.36,0,0,0,8.36-8.37V122.42h0Z"/>
  <path class="cls-1" d="M174.09,9.14a9,9,0,0,0-5.55,1.75,8,8,0,0,0-3,4l-16.15,54.2-11,39.76L127.69,69.14l-16-54.2c-.07-.19-.15-.35-.22-.53l-1.6-5.52H88.41l-4.87,19L69.87,73l-8.93,31.59-.21,1,0-.1-1,3.4L48.74,70,32.18,14.94a7.88,7.88,0,0,0-3.05-4.2,9.68,9.68,0,0,0-5.76-1.6H7.1L46.52,142H70.24L97.06,53.67c.33-1.14.7-2.4,1.1-3.81s.76-2.86,1.1-4.4c.33,1.54.68,3,1,4.4s.75,2.67,1.15,3.81L127.78,142h23.81L191,9.14Z"/>
  <path class="cls-1" d="M274.62,30.45v0h18V17.5a8.36,8.36,0,0,0-8.37-8.36H211.43V142h72.79a8.37,8.37,0,0,0,8.37-8.37v-12.9H275v-.05H232.81V86.24h47.57V64.93H232.81V30.45Z"/>
  <path class="cls-3" d="M426.69,8.6H442.3a0,0,0,0,1,0,0V29.34a0,0,0,0,1,0,0H421a0,0,0,0,1,0,0v-15A5.7,5.7,0,0,1,426.69,8.6Z"/>
  <path class="cls-2" d="M526.38,124.61V63.51h0V29.34h32.9a9.67,9.67,0,0,0,9.66-9.66V8.6H472a9.65,9.65,0,0,0-9.65,9.65V29.34h42.72v92.23h0v20.74h11.6a9.91,9.91,0,0,0,9.76-9.85"/>
</svg>